<svg width="17" height="16" viewBox="0 0 17 16" fill="none" xmlns="http://www.w3.org/2000/svg">
<g clip-path="url(#clip0_1_17)">
<path d="M16.71 14.82L13.19 11.34C14.25 10.14 14.89 8.57 14.89 6.86C14.89 3.08 11.77 0 7.93998 0C4.09998 0 0.97998 3.08 0.97998 6.87C0.97998 10.65 4.09998 13.73 7.92998 13.73C9.52998 13.73 11 13.19 12.17 12.29L15.72 15.8C15.8505 15.929 16.0265 16.0013 16.21 16.0013C16.3934 16.0013 16.5695 15.929 16.7 15.8C16.99 15.53 16.99 15.09 16.71 14.82ZM2.37998 6.87C2.37998 3.84 4.86998 1.38 7.93998 1.38C11 1.38 13.5 3.84 13.5 6.87C13.5 9.89 11 12.36 7.93998 12.36C4.86998 12.35 2.37998 9.89 2.37998 6.87Z" fill="#C8C8C8"/>
</g>
<defs>
<clipPath id="clip0_1_17">
<rect width="17" height="16" fill="white"/>
</clipPath>
</defs>
</svg>
